<mxfile host="app.diagrams.net" modified="2023-10-06T22:00:32.047Z" agent="Mozilla/5.0 (X11; Linux x86_64) AppleWebKit/537.36 (KHTML, like Gecko) Chrome/117.0.0.0 Safari/537.36" etag="0veC3cKCqW8y5A0_fBSs" version="22.0.4" type="device">
  <diagram name="Page-1" id="e8uui0p9XE-1X3-Vjom4">
    <mxGraphModel dx="1418" dy="1883" grid="1" gridSize="10" guides="1" tooltips="1" connect="1" arrows="1" fold="1" page="1" pageScale="1" pageWidth="850" pageHeight="1100" math="0" shadow="0">
      <root>
        <mxCell id="0" />
        <mxCell id="1" parent="0" />
        <mxCell id="lqNgHc1LkXH1c9NAzfr3-1" value="" style="ellipse;html=1;shape=startState;fillColor=#000000;strokeColor=#ff0000;" vertex="1" parent="1">
          <mxGeometry x="220" y="160" width="30" height="30" as="geometry" />
        </mxCell>
        <mxCell id="lqNgHc1LkXH1c9NAzfr3-2" value="" style="edgeStyle=orthogonalEdgeStyle;html=1;verticalAlign=bottom;endArrow=open;endSize=8;strokeColor=#ff0000;rounded=0;" edge="1" source="lqNgHc1LkXH1c9NAzfr3-1" parent="1">
          <mxGeometry relative="1" as="geometry">
            <mxPoint x="235" y="250" as="targetPoint" />
          </mxGeometry>
        </mxCell>
        <mxCell id="lqNgHc1LkXH1c9NAzfr3-5" value="/hola" style="text;html=1;align=center;verticalAlign=middle;resizable=0;points=[];autosize=1;strokeColor=none;fillColor=none;" vertex="1" parent="1">
          <mxGeometry x="210" y="140" width="50" height="30" as="geometry" />
        </mxCell>
        <mxCell id="lqNgHc1LkXH1c9NAzfr3-12" value="" style="edgeStyle=orthogonalEdgeStyle;rounded=0;orthogonalLoop=1;jettySize=auto;html=1;" edge="1" parent="1" source="lqNgHc1LkXH1c9NAzfr3-6" target="lqNgHc1LkXH1c9NAzfr3-7">
          <mxGeometry relative="1" as="geometry" />
        </mxCell>
        <mxCell id="lqNgHc1LkXH1c9NAzfr3-6" value="&quot;¡Hola! Bienvenido al juego de Niño Jesús Secreto&quot;" style="text;html=1;align=center;verticalAlign=middle;resizable=0;points=[];autosize=1;strokeColor=none;fillColor=none;" vertex="1" parent="1">
          <mxGeometry x="85" y="248" width="300" height="30" as="geometry" />
        </mxCell>
        <mxCell id="lqNgHc1LkXH1c9NAzfr3-14" value="" style="edgeStyle=orthogonalEdgeStyle;rounded=0;orthogonalLoop=1;jettySize=auto;html=1;" edge="1" parent="1" source="lqNgHc1LkXH1c9NAzfr3-7" target="lqNgHc1LkXH1c9NAzfr3-13">
          <mxGeometry relative="1" as="geometry" />
        </mxCell>
        <mxCell id="lqNgHc1LkXH1c9NAzfr3-18" value="YES" style="edgeLabel;html=1;align=center;verticalAlign=middle;resizable=0;points=[];" vertex="1" connectable="0" parent="lqNgHc1LkXH1c9NAzfr3-14">
          <mxGeometry x="-0.1431" y="-3" relative="1" as="geometry">
            <mxPoint x="-6" y="-13" as="offset" />
          </mxGeometry>
        </mxCell>
        <mxCell id="lqNgHc1LkXH1c9NAzfr3-16" value="" style="edgeStyle=orthogonalEdgeStyle;rounded=0;orthogonalLoop=1;jettySize=auto;html=1;" edge="1" parent="1" source="lqNgHc1LkXH1c9NAzfr3-7" target="lqNgHc1LkXH1c9NAzfr3-15">
          <mxGeometry relative="1" as="geometry" />
        </mxCell>
        <mxCell id="lqNgHc1LkXH1c9NAzfr3-17" value="NO" style="edgeLabel;html=1;align=center;verticalAlign=middle;resizable=0;points=[];" vertex="1" connectable="0" parent="lqNgHc1LkXH1c9NAzfr3-16">
          <mxGeometry x="-0.1103" y="-4" relative="1" as="geometry">
            <mxPoint x="-11" as="offset" />
          </mxGeometry>
        </mxCell>
        <mxCell id="lqNgHc1LkXH1c9NAzfr3-7" value="Registered?" style="rhombus;whiteSpace=wrap;html=1;" vertex="1" parent="1">
          <mxGeometry x="195" y="300" width="80" height="80" as="geometry" />
        </mxCell>
        <mxCell id="lqNgHc1LkXH1c9NAzfr3-13" value="¿Quieres preguntarme algo?" style="text;html=1;align=center;verticalAlign=middle;resizable=0;points=[];autosize=1;strokeColor=none;fillColor=none;" vertex="1" parent="1">
          <mxGeometry x="355" y="325" width="180" height="30" as="geometry" />
        </mxCell>
        <mxCell id="lqNgHc1LkXH1c9NAzfr3-27" value="" style="edgeStyle=orthogonalEdgeStyle;rounded=0;orthogonalLoop=1;jettySize=auto;html=1;" edge="1" parent="1" source="lqNgHc1LkXH1c9NAzfr3-15" target="lqNgHc1LkXH1c9NAzfr3-26">
          <mxGeometry relative="1" as="geometry" />
        </mxCell>
        <mxCell id="lqNgHc1LkXH1c9NAzfr3-15" value="¿Cómo te llamas?" style="text;html=1;align=center;verticalAlign=middle;resizable=0;points=[];autosize=1;strokeColor=none;fillColor=none;" vertex="1" parent="1">
          <mxGeometry x="175" y="428" width="120" height="30" as="geometry" />
        </mxCell>
        <mxCell id="lqNgHc1LkXH1c9NAzfr3-45" style="edgeStyle=orthogonalEdgeStyle;rounded=0;orthogonalLoop=1;jettySize=auto;html=1;" edge="1" parent="1" source="lqNgHc1LkXH1c9NAzfr3-23" target="lqNgHc1LkXH1c9NAzfr3-40">
          <mxGeometry relative="1" as="geometry" />
        </mxCell>
        <mxCell id="lqNgHc1LkXH1c9NAzfr3-47" style="edgeStyle=orthogonalEdgeStyle;rounded=0;orthogonalLoop=1;jettySize=auto;html=1;exitX=1;exitY=0.5;exitDx=0;exitDy=0;exitPerimeter=0;" edge="1" parent="1" source="lqNgHc1LkXH1c9NAzfr3-23" target="lqNgHc1LkXH1c9NAzfr3-41">
          <mxGeometry relative="1" as="geometry" />
        </mxCell>
        <mxCell id="lqNgHc1LkXH1c9NAzfr3-51" style="edgeStyle=orthogonalEdgeStyle;rounded=0;orthogonalLoop=1;jettySize=auto;html=1;exitX=1;exitY=0.5;exitDx=0;exitDy=0;exitPerimeter=0;entryX=0;entryY=0.5;entryDx=0;entryDy=0;" edge="1" parent="1" source="lqNgHc1LkXH1c9NAzfr3-23" target="lqNgHc1LkXH1c9NAzfr3-42">
          <mxGeometry relative="1" as="geometry" />
        </mxCell>
        <mxCell id="lqNgHc1LkXH1c9NAzfr3-23" value="&lt;font style=&quot;font-size: 12px;&quot;&gt;CHOOSING&lt;br&gt;&lt;/font&gt;" style="strokeWidth=2;html=1;shape=mxgraph.flowchart.start_2;whiteSpace=wrap;" vertex="1" parent="1">
          <mxGeometry x="700" y="290" width="100" height="100" as="geometry" />
        </mxCell>
        <mxCell id="lqNgHc1LkXH1c9NAzfr3-50" value="" style="edgeStyle=orthogonalEdgeStyle;rounded=0;orthogonalLoop=1;jettySize=auto;html=1;" edge="1" parent="1" source="lqNgHc1LkXH1c9NAzfr3-26" target="lqNgHc1LkXH1c9NAzfr3-49">
          <mxGeometry relative="1" as="geometry" />
        </mxCell>
        <mxCell id="lqNgHc1LkXH1c9NAzfr3-26" value="TYPING_REPLY" style="strokeWidth=2;html=1;shape=mxgraph.flowchart.start_2;whiteSpace=wrap;" vertex="1" parent="1">
          <mxGeometry x="185" y="510" width="100" height="100" as="geometry" />
        </mxCell>
        <mxCell id="lqNgHc1LkXH1c9NAzfr3-29" value="Muchas gracias {name},&lt;br&gt;te acabo de registrar en el juego" style="text;html=1;align=center;verticalAlign=middle;resizable=0;points=[];autosize=1;strokeColor=none;fillColor=none;" vertex="1" parent="1">
          <mxGeometry x="345" y="388" width="200" height="40" as="geometry" />
        </mxCell>
        <mxCell id="lqNgHc1LkXH1c9NAzfr3-44" style="edgeStyle=orthogonalEdgeStyle;rounded=0;orthogonalLoop=1;jettySize=auto;html=1;entryX=0;entryY=0.5;entryDx=0;entryDy=0;entryPerimeter=0;" edge="1" parent="1" source="lqNgHc1LkXH1c9NAzfr3-13" target="lqNgHc1LkXH1c9NAzfr3-23">
          <mxGeometry relative="1" as="geometry">
            <Array as="points">
              <mxPoint x="620" y="340" />
              <mxPoint x="620" y="340" />
            </Array>
          </mxGeometry>
        </mxCell>
        <mxCell id="lqNgHc1LkXH1c9NAzfr3-62" value="" style="edgeStyle=orthogonalEdgeStyle;rounded=0;orthogonalLoop=1;jettySize=auto;html=1;" edge="1" parent="1" source="lqNgHc1LkXH1c9NAzfr3-40" target="lqNgHc1LkXH1c9NAzfr3-60">
          <mxGeometry relative="1" as="geometry" />
        </mxCell>
        <mxCell id="lqNgHc1LkXH1c9NAzfr3-40" value="+ Consultar quién es mi pareja" style="text;strokeColor=none;fillColor=none;align=left;verticalAlign=top;spacingLeft=4;spacingRight=4;overflow=hidden;rotatable=0;points=[[0,0.5],[1,0.5]];portConstraint=eastwest;whiteSpace=wrap;html=1;" vertex="1" parent="1">
          <mxGeometry x="860" y="-10" width="180" height="26" as="geometry" />
        </mxCell>
        <mxCell id="lqNgHc1LkXH1c9NAzfr3-41" value="+ Consultar preferencias de mi pareja" style="text;strokeColor=none;fillColor=none;align=left;verticalAlign=top;spacingLeft=4;spacingRight=4;overflow=hidden;rotatable=0;points=[[0,0.5],[1,0.5]];portConstraint=eastwest;whiteSpace=wrap;html=1;" vertex="1" parent="1">
          <mxGeometry x="1020" y="278" width="220" height="26" as="geometry" />
        </mxCell>
        <mxCell id="lqNgHc1LkXH1c9NAzfr3-55" style="edgeStyle=orthogonalEdgeStyle;rounded=0;orthogonalLoop=1;jettySize=auto;html=1;" edge="1" parent="1" source="lqNgHc1LkXH1c9NAzfr3-42" target="lqNgHc1LkXH1c9NAzfr3-48">
          <mxGeometry relative="1" as="geometry" />
        </mxCell>
        <mxCell id="lqNgHc1LkXH1c9NAzfr3-42" value="+ Registrar mis preferencias" style="text;strokeColor=none;fillColor=none;align=left;verticalAlign=top;spacingLeft=4;spacingRight=4;overflow=hidden;rotatable=0;points=[[0,0.5],[1,0.5]];portConstraint=eastwest;whiteSpace=wrap;html=1;" vertex="1" parent="1">
          <mxGeometry x="840" y="428" width="170" height="26" as="geometry" />
        </mxCell>
        <mxCell id="lqNgHc1LkXH1c9NAzfr3-56" value="" style="edgeStyle=orthogonalEdgeStyle;rounded=0;orthogonalLoop=1;jettySize=auto;html=1;" edge="1" parent="1" source="lqNgHc1LkXH1c9NAzfr3-48" target="lqNgHc1LkXH1c9NAzfr3-54">
          <mxGeometry relative="1" as="geometry" />
        </mxCell>
        <mxCell id="lqNgHc1LkXH1c9NAzfr3-48" value="Claro que sí, ¿Cuáles son tus preferencias?&lt;br&gt;Por ejemplo qué talla eres o si te gustaría algo en particular" style="text;html=1;align=center;verticalAlign=middle;resizable=0;points=[];autosize=1;strokeColor=none;fillColor=none;" vertex="1" parent="1">
          <mxGeometry x="1060" y="421" width="340" height="40" as="geometry" />
        </mxCell>
        <mxCell id="lqNgHc1LkXH1c9NAzfr3-52" value="" style="edgeStyle=orthogonalEdgeStyle;rounded=0;orthogonalLoop=1;jettySize=auto;html=1;" edge="1" parent="1" source="lqNgHc1LkXH1c9NAzfr3-49" target="lqNgHc1LkXH1c9NAzfr3-29">
          <mxGeometry relative="1" as="geometry" />
        </mxCell>
        <mxCell id="lqNgHc1LkXH1c9NAzfr3-49" value="REGISTER ON DB&lt;br&gt;{name} {chat_id}" style="rounded=1;whiteSpace=wrap;html=1;absoluteArcSize=1;arcSize=14;strokeWidth=2;" vertex="1" parent="1">
          <mxGeometry x="347.5" y="541" width="195" height="38" as="geometry" />
        </mxCell>
        <mxCell id="lqNgHc1LkXH1c9NAzfr3-53" style="edgeStyle=orthogonalEdgeStyle;rounded=0;orthogonalLoop=1;jettySize=auto;html=1;entryX=0;entryY=0.5;entryDx=0;entryDy=0;entryPerimeter=0;" edge="1" parent="1" source="lqNgHc1LkXH1c9NAzfr3-29" target="lqNgHc1LkXH1c9NAzfr3-23">
          <mxGeometry relative="1" as="geometry" />
        </mxCell>
        <mxCell id="lqNgHc1LkXH1c9NAzfr3-58" value="" style="edgeStyle=orthogonalEdgeStyle;rounded=0;orthogonalLoop=1;jettySize=auto;html=1;" edge="1" parent="1" source="lqNgHc1LkXH1c9NAzfr3-54" target="lqNgHc1LkXH1c9NAzfr3-57">
          <mxGeometry relative="1" as="geometry" />
        </mxCell>
        <mxCell id="lqNgHc1LkXH1c9NAzfr3-54" value="TYPING_REPLY" style="strokeWidth=2;html=1;shape=mxgraph.flowchart.start_2;whiteSpace=wrap;" vertex="1" parent="1">
          <mxGeometry x="1180" y="529" width="100" height="100" as="geometry" />
        </mxCell>
        <mxCell id="lqNgHc1LkXH1c9NAzfr3-57" value="REGISTER ON DB&lt;br&gt;{preferences}" style="rounded=1;whiteSpace=wrap;html=1;absoluteArcSize=1;arcSize=14;strokeWidth=2;" vertex="1" parent="1">
          <mxGeometry x="830" y="560" width="175" height="38" as="geometry" />
        </mxCell>
        <mxCell id="lqNgHc1LkXH1c9NAzfr3-59" style="edgeStyle=orthogonalEdgeStyle;rounded=0;orthogonalLoop=1;jettySize=auto;html=1;entryX=0.5;entryY=1;entryDx=0;entryDy=0;entryPerimeter=0;" edge="1" parent="1" source="lqNgHc1LkXH1c9NAzfr3-57" target="lqNgHc1LkXH1c9NAzfr3-23">
          <mxGeometry relative="1" as="geometry" />
        </mxCell>
        <mxCell id="lqNgHc1LkXH1c9NAzfr3-64" value="" style="edgeStyle=orthogonalEdgeStyle;rounded=0;orthogonalLoop=1;jettySize=auto;html=1;" edge="1" parent="1" source="lqNgHc1LkXH1c9NAzfr3-60" target="lqNgHc1LkXH1c9NAzfr3-63">
          <mxGeometry relative="1" as="geometry" />
        </mxCell>
        <mxCell id="lqNgHc1LkXH1c9NAzfr3-60" value="QUERY DB&lt;br&gt;{recipient_name}" style="rounded=1;whiteSpace=wrap;html=1;absoluteArcSize=1;arcSize=14;strokeWidth=2;" vertex="1" parent="1">
          <mxGeometry x="1130" y="-16" width="175" height="38" as="geometry" />
        </mxCell>
        <mxCell id="lqNgHc1LkXH1c9NAzfr3-61" value="Claro que sí, tu pareja es {recipient_name}" style="text;html=1;align=center;verticalAlign=middle;resizable=0;points=[];autosize=1;strokeColor=none;fillColor=none;" vertex="1" parent="1">
          <mxGeometry x="880" y="160" width="250" height="30" as="geometry" />
        </mxCell>
        <mxCell id="lqNgHc1LkXH1c9NAzfr3-65" value="" style="edgeStyle=orthogonalEdgeStyle;rounded=0;orthogonalLoop=1;jettySize=auto;html=1;" edge="1" parent="1" source="lqNgHc1LkXH1c9NAzfr3-63" target="lqNgHc1LkXH1c9NAzfr3-61">
          <mxGeometry relative="1" as="geometry" />
        </mxCell>
        <mxCell id="lqNgHc1LkXH1c9NAzfr3-66" value="NO" style="edgeLabel;html=1;align=center;verticalAlign=middle;resizable=0;points=[];" vertex="1" connectable="0" parent="lqNgHc1LkXH1c9NAzfr3-65">
          <mxGeometry x="-0.4386" relative="1" as="geometry">
            <mxPoint x="-15" y="6" as="offset" />
          </mxGeometry>
        </mxCell>
        <mxCell id="lqNgHc1LkXH1c9NAzfr3-63" value="recicipent is none?" style="rhombus;whiteSpace=wrap;html=1;" vertex="1" parent="1">
          <mxGeometry x="1152.5" y="70" width="130" height="80" as="geometry" />
        </mxCell>
        <mxCell id="lqNgHc1LkXH1c9NAzfr3-67" style="edgeStyle=orthogonalEdgeStyle;rounded=0;orthogonalLoop=1;jettySize=auto;html=1;entryX=0.855;entryY=0.145;entryDx=0;entryDy=0;entryPerimeter=0;" edge="1" parent="1" source="lqNgHc1LkXH1c9NAzfr3-61" target="lqNgHc1LkXH1c9NAzfr3-23">
          <mxGeometry relative="1" as="geometry" />
        </mxCell>
      </root>
    </mxGraphModel>
  </diagram>
</mxfile>
